<svg id="exN7SO4uDWc1" xmlns="http://www.w3.org/2000/svg" xmlns:xlink="http://www.w3.org/1999/xlink" viewBox="0 0 300 300" shape-rendering="geometricPrecision" text-rendering="geometricPrecision"><ellipse rx="96.908602" ry="96.908602" transform="matrix(1.500693 0 0 1.49792 150 150)" fill="#7364f0" stroke-width="0"/><rect width="210.215054" height="285.483914" rx="0" ry="0" transform="matrix(.96931 0 0 0.905833 42.741879 16.253029)" fill="#fff" stroke="#595959" stroke-width="3"/><rect width="48.655914" height="48.655914" rx="0" ry="0" transform="translate(68.010753 46.774193)" fill="none" stroke="#7c7c7c" stroke-width="3"/><line x1="-20.698925" y1="21.236559" x2="20.698924" y2="-21.236559" transform="translate(105.989248 62.096774)" fill="none" stroke="#80f381" stroke-width="5"/><line x1="4.33871" y1="3.763441" x2="-4.33871" y2="-3.763441" transform="matrix(1.132939 0.059261-.054008 1.032512 84.21996 78.744059)" fill="none" stroke="#80f381" stroke-width="5"/><line x1="-41.877172" y1="0" x2="41.877173" y2="0" transform="translate(179.253791 75.115376)" fill="none" stroke="#80f381" stroke-width="20"/><line x1="-41.877172" y1="0" x2="41.877173" y2="0" transform="translate(179.253791 152.115376)" fill="none" stroke="#80f381" stroke-width="20"/><line x1="-41.877172" y1="0" x2="41.877173" y2="0" transform="translate(179.253791 227.115376)" fill="none" stroke="#80f381" stroke-width="20"/><line x1="4.33871" y1="3.763441" x2="-4.33871" y2="-3.763441" transform="matrix(1.132939 0.059261-.054008 1.032512 84.21996 230.744059)" fill="none" stroke="#80f381" stroke-width="5"/><rect width="48.655914" height="48.655914" rx="0" ry="0" transform="translate(68.010753 198.774193)" fill="none" stroke="#7c7c7c" stroke-width="3"/><line x1="4.33871" y1="3.763441" x2="-4.33871" y2="-3.763441" transform="matrix(1.132939 0.059261-.054008 1.032512 84.21996 155.744059)" fill="none" stroke="#80f381" stroke-width="5"/><rect width="48.655914" height="48.655914" rx="0" ry="0" transform="translate(68.010753 123.774193)" fill="none" stroke="#7c7c7c" stroke-width="3"/><line x1="0.288808" y1="0" x2="-0.288808" y2="0" transform="translate(-41.395585 137.072311)" fill="none" stroke="#3f5787" stroke-width="3"/><line x1="-20.698925" y1="21.236559" x2="20.698924" y2="-21.236559" transform="translate(105.989248 139.096774)" fill="none" stroke="#80f381" stroke-width="5"/><line x1="-20.698925" y1="21.236559" x2="20.698924" y2="-21.236559" transform="translate(105.122141 214.096774)" fill="none" stroke="#80f381" stroke-width="5"/></svg>